<svg viewBox="0 0 1080 1080" xmlns="http://www.w3.org/2000/svg"><path d="m410.18164 63.794922c-6.17852.28559-12.09175 2.658154-16.60937 7.175781-10.32601 10.326006-9.45133 27.945156 1.95703 39.353517l23.70703 23.70703a182 182 0 0 0 -59.60156 113.09766 367 418 0 0 0 -89.70118 80.83203l-146.06836-49.95899c-25.497616-8.721-52.445744 3.04854-60.193355 26.28516s6.637146 49.14423 32.134766 57.86523l125.374999 42.88282a367 418 0 0 0 -40.48437 124.74023h-78.32422c-27.513143 0-49.812503 20.40536-49.812503 45.57422s22.29936 45.57422 49.812503 45.57422h71.3125a367 418 0 0 0 26.0332 143.03515l-100.009766 28.21875c-26.16946 7.38378-42.146713 33.24878-35.691406 57.77149s32.900708 38.41812 59.074222 31.0332l116.19336-32.7832a367 418 0 0 0 300.71484 179.80078 367 418 0 0 0 300.71484-179.80078l116.19336 32.7832c26.17351 7.38492 52.6189-6.51049 59.0742-31.0332s-9.5219-50.38771-35.69138-57.77149l-100.00977-28.21875a367 418 0 0 0 26.0332-143.03515h71.3125c27.51315 0 49.81255-20.40536 49.81255-45.57422s-22.2994-45.57422-49.81255-45.57422h-77.47265a367 418 0 0 0 -40.52149-125.01953l124.56055-42.60352c25.49764-8.721 39.88234-34.62861 32.13474-57.86523s-34.69571-35.00616-60.19333-26.28516l-145.54688 49.78125a367 418 0 0 0 -90.21875-81.72851 182 182 0 0 0 -59.52734-112.10157l23.6289-23.6289c11.40836-11.408361 12.28304-29.027511 1.95703-39.353517-10.326-10.326006-27.9432-9.449375-39.35156 1.958985l-31.53711 31.537112a182 182 0 0 0 -75.53906-16.4668 182 182 0 0 0 -75.57031 16.43359l-31.50586-31.503902c-6.4172-6.417203-14.79838-9.501954-22.74219-9.134766z" fill="#656565"/></svg>
